<mxfile host="app.diagrams.net" modified="2024-08-28T16:26:00.340Z" agent="Mozilla/5.0 (Windows NT 10.0; Win64; x64) AppleWebKit/537.36 (KHTML, like Gecko) Chrome/128.0.0.0 Safari/537.36" version="22.1.13" etag="-t85evJwWErhaBFJVTKd" type="github">
  <diagram name="Page-1" id="wES4_EtrtxTQH2TGF9Eh">
    <mxGraphModel>
      <root>
        <mxCell id="0" />
        <mxCell id="1" parent="0" />
      </root>
    </mxGraphModel>
  </diagram>
</mxfile>
